<?xml version="1.0" encoding="utf-8"?>
<!DOCTYPE svg PUBLIC "-//W3C//DTD SVG 1.1//EN" "http://www.w3.org/Graphics/SVG/1.1/DTD/svg11.dtd">
<svg version="1.1" xmlns="http://www.w3.org/2000/svg" xmlns:xlink="http://www.w3.org/1999/xlink" x="0px" y="0px"
     viewBox="0 0 40 40" enable-background="new 0 0 40 40" xml:space="preserve">
    <g>
        <path d="M21.9,1.9h-6.5c0-0.4-0.3-0.7-0.7-0.7h-4.4c-0.4,0-0.7,0.3-0.7,0.7H3.1c-1.2,0-2.2,1-2.2,2.2v1.5c0,0.4,0.3,0.7,0.7,0.7
            h2.2v16c0,1.2,1,2.2,2.2,2.2H19c1.2,0,2.2-1,2.2-2.2v-16h2.2c0.4,0,0.7-0.3,0.7-0.7V4.1C24.1,2.9,23.1,1.9,21.9,1.9z M19.8,22.3
            c0,0.4-0.3,0.7-0.7,0.7H6c-0.4,0-0.7-0.3-0.7-0.7v-16h14.5V22.3z M22.7,4.8H2.3V4.1c0-0.4,0.3-0.7,0.7-0.7h18.9
            c0.4,0,0.7,0.3,0.7,0.7V4.8z"/>
        <path d="M8.1,21.5c0.4,0,0.7-0.3,0.7-0.7V9.9c0-0.4-0.3-0.7-0.7-0.7c-0.4,0-0.7,0.3-0.7,0.7v10.9C7.4,21.2,7.7,21.5,8.1,21.5z"/>
        <path d="M11,21.5c0.4,0,0.7-0.3,0.7-0.7V9.9c0-0.4-0.3-0.7-0.7-0.7c-0.4,0-0.7,0.3-0.7,0.7v10.9C10.3,21.2,10.6,21.5,11,21.5z"/>
        <path d="M14,21.5c0.4,0,0.7-0.3,0.7-0.7V9.9c0-0.4-0.3-0.7-0.7-0.7c-0.4,0-0.7,0.3-0.7,0.7v10.9C13.2,21.2,13.6,21.5,14,21.5z"/>
        <path d="M16.9,21.5c0.4,0,0.7-0.3,0.7-0.7V9.9c0-0.4-0.3-0.7-0.7-0.7c-0.4,0-0.7,0.3-0.7,0.7v10.9C16.1,21.2,16.5,21.5,16.9,21.5z"/>
    </g>
</svg>
