<?xml version="1.0" encoding="utf-8"?>
<!DOCTYPE svg PUBLIC "-//W3C//DTD SVG 1.1//EN" "http://www.w3.org/Graphics/SVG/1.1/DTD/svg11.dtd">
<svg version="1.1" xmlns="http://www.w3.org/2000/svg" xmlns:xlink="http://www.w3.org/1999/xlink" x="0px" y="0px"
     viewBox="0 0 40 40" enable-background="new 0 0 40 40" xml:space="preserve">
    <g>
        <g>
            <polyline fill="none" points="13.8,15 8,15 8,35.7 32,35.7 32,15 26.1,15"/>
        </g>
        <polygon points="26.1,12.7 26.1,15 32,15 32,35.7 8,35.7 8,15 13.8,15 13.8,12.7 5.7,12.7 5.7,37.9 34.3,37.9 34.3,12.7"/>
    </g>
    <path d="M29.1,22.9c-0.5-0.5-1.4-0.5-1.9,0l-5.9,5.9v-25c0-0.8-0.6-1.4-1.4-1.4s-1.4,0.6-1.4,1.4v25l-5.9-5.9
    c-0.5-0.5-1.4-0.5-1.9,0c-0.5,0.5-0.5,1.4,0,1.9l8.2,8.2c0.2,0.2,0.4,0.3,0.7,0.3c0,0,0.1,0,0.1,0c0.1,0,0.1,0,0.2,0c0,0,0,0,0,0h0
    c0.1,0,0.1,0,0.2,0c0,0,0.1,0,0.1,0c0.2,0,0.3-0.1,0.4-0.2c0,0,0,0,0,0c0.1,0,0.2-0.1,0.2-0.1l8.2-8.2
    C29.6,24.3,29.6,23.5,29.1,22.9z"/>
</svg>
