<?xml version="1.0" encoding="utf-8"?>
<!-- Generator: Adobe Illustrator 18.0.0, SVG Export Plug-In . SVG Version: 6.00 Build 0)  -->
<!DOCTYPE svg PUBLIC "-//W3C//DTD SVG 1.1//EN" "http://www.w3.org/Graphics/SVG/1.1/DTD/svg11.dtd">
<svg version="1.1" xmlns="http://www.w3.org/2000/svg" xmlns:xlink="http://www.w3.org/1999/xlink" x="0px" y="0px"
     viewBox="0 0 40 40" enable-background="new 0 0 40 40" xml:space="preserve">
    <g>
        <path d="M21.5,4.8c-0.2-1-0.7-1.9-1.5-2.5c-0.8-0.6-1.8-0.8-2.8-0.7c-1,0.2-1.9,0.7-2.5,1.5l-9.6,13
            C5,16.2,5,16.3,5,16.4l-1.5,7.4c0,0.2,0,0.5,0.2,0.6c0.1,0.1,0.3,0.2,0.5,0.1c0.1,0,0.1,0,0.2-0.1l6.1-2.9c0.1,0,0.2-0.1,0.2-0.2
            L20.8,7.6C21.4,6.8,21.6,5.8,21.5,4.8z M9.6,20.6l-2.3,1.1c-0.2-0.4-0.5-0.7-0.8-1c-0.3-0.2-0.6-0.4-1-0.5l0.6-3.2l1.5-0.2
            l0.2,1.3c0.1,0.4,0.4,0.6,0.7,0.5l1.1-0.2L9.6,20.6z M17.5,9.9l-6.6,9l0.1-1.1c0-0.2-0.1-0.4-0.2-0.5c-0.1-0.1-0.3-0.2-0.5-0.2
            L9,17.3L8.8,16c-0.1-0.4-0.4-0.6-0.7-0.5l-1,0.2l6.4-8.7l0,0c0.4-0.5,1-0.9,1.6-1C15.8,5.8,16.5,6,17,6.4c0.5,0.4,0.9,1,1,1.6
            S17.9,9.3,17.5,9.9z M19.7,6.9l-0.5,0.7c-0.2-0.9-0.7-1.7-1.5-2.2c-0.8-0.6-1.7-0.8-2.6-0.7l0.5-0.7l0,0c0.4-0.5,1-0.9,1.6-1
            C18,2.8,18.6,3,19.2,3.4c0.5,0.4,0.9,1,1,1.6C20.3,5.7,20.1,6.3,19.7,6.9z M15.5,7.3l-5.4,7.4c-0.2,0.3-0.1,0.7,0.1,0.9
            c0.1,0.1,0.3,0.1,0.5,0.1c0.2,0,0.3-0.1,0.4-0.3l5.4-7.4c0.2-0.3,0.1-0.7-0.1-0.9C16.1,7,15.7,7,15.5,7.3z"/>
    </g>
</svg>
