<?xml version="1.0" encoding="utf-8"?>
<!-- Generator: Adobe Illustrator 18.0.0, SVG Export Plug-In . SVG Version: 6.00 Build 0)  -->
<!DOCTYPE svg PUBLIC "-//W3C//DTD SVG 1.1//EN" "http://www.w3.org/Graphics/SVG/1.1/DTD/svg11.dtd">
<svg version="1.1" id="Layer_1" xmlns="http://www.w3.org/2000/svg" xmlns:xlink="http://www.w3.org/1999/xlink" x="0px" y="0px"
	 viewBox="0 0 40 40" enable-background="new 0 0 40 40" xml:space="preserve">
<g>
	<g>
		<path d="M25.5,26.7h-11c-0.5,0-1,0.4-1,1c0,0.3,0.1,0.5,0.3,0.7c0.2,0.2,0.4,0.3,0.7,0.3h11c0.5,0,1-0.4,1-1
			C26.5,27.2,26.1,26.7,25.5,26.7z"/>
	</g>
	<g>
		<path d="M25.5,30.2h-11c-0.5,0-1,0.4-1,1c0,0.3,0.1,0.5,0.3,0.7c0.2,0.2,0.4,0.3,0.7,0.3h11c0.5,0,1-0.4,1-1
			C26.5,30.6,26.1,30.2,25.5,30.2z"/>
	</g>
	<circle fill="#221F1F" cx="31.7" cy="18.7" r="1.6"/>
	<path fill="#221F1F" d="M31,13.6V4.9H9v8.7H3.4V32H9v3.8H31V32h5.6V13.6H31z M10.9,6.8h18.2v6.7H10.9V6.8z M29.1,33.8L29.1,33.8
		L29.1,33.8l-18.2,0.1v-0.1V32v-2v-5h18.2h0V33.8z M34.7,30H31v-6.9H9V30H5.3V15.5H9H31h3.6V30z"/>
</g>
</svg>
